<?xml version="1.0" encoding="UTF-8"?>
<!-- Generator: Adobe Illustrator 18.1.0, SVG Export Plug-In . SVG Version: 6.00 Build 0)  -->
<!DOCTYPE svg PUBLIC "-//W3C//DTD SVG 1.1//EN" "http://www.w3.org/Graphics/SVG/1.1/DTD/svg11.dtd">
<svg version="1.1" id="Layer_1" xmlns="http://www.w3.org/2000/svg" xmlns:xlink="http://www.w3.org/1999/xlink" x="0px" y="0px" viewBox="-1199 451 100 100" enable-background="new -1199 451 100 100" xml:space="preserve">
<g>
	<path fill="#FFFFFF" d="M-1154,519.8l-4.2-3.8l-5.8,0.8c-3.8,0.4-7.5-2.1-8.3-5.8l-0.8-5.4h-0.4l-12.9,25.8l15-2.1l7.5,13.3   l10.8-22.1C-1153.6,520.2-1153.6,520.2-1154,519.8z"/>
	<path fill="#FFFFFF" d="M-1124.4,505.6L-1124.4,505.6l-1.2,5.4c-0.8,3.3-3.8,5.8-7.1,5.8l0,0c-0.4,0-0.8,0-0.8,0l-5.8-0.8l-4.2,3.8   c-0.4,0.4-0.4,0.4-0.8,0.8l10.8,22.1l7.5-12.9l15,2.1L-1124.4,505.6z"/>
</g>
<g>
	<path fill="#FFFFFF" d="M-1121.5,477.7l-7.1-3.3l-1.2-7.5c-0.4-1.7-2.1-2.9-3.8-2.5l-7.9,1.2l-5.8-5.4c-1.2-1.2-3.3-1.2-4.6,0   l-5.8,5.4l-6.7-1.2c-2.1-0.4-3.3,0.8-3.8,2.5l-1.2,7.5l-7.1,3.3c-1.7,0.8-2.1,2.5-1.2,4.2l3.3,6.7l-3.3,6.7c-0.8,1.7,0,3.3,1.2,4.2   l7.1,3.3l1.2,7.5c0.4,1.7,2.1,2.9,3.8,2.5l7.9-1.3l5.8,5.4c1.2,1.2,3.3,1.2,4.6,0l5.8-5.4l7.9,1.3c1.7,0.4,3.3-0.8,3.8-2.5l1.2-7.5   l7.1-3.3c1.7-0.8,2.1-2.5,1.2-4.2l-4.6-6.7l3.3-6.7C-1119.4,480.2-1119.8,478.5-1121.5,477.7z"/>
</g>
</svg>