<?xml version="1.0"?>
<!DOCTYPE svg PUBLIC "-//W3C//DTD SVG 1.1//EN" "http://www.w3.org/Graphics/SVG/1.1/DTD/svg11.dtd">
<svg width="130px" height="19px" viewboc="0 0 65 65" xmlns="http://www.w3.org/2000/svg">
    <g stroke="none" fill="none" fill-rule="evenodd">
        <path style="fill:black;stroke:none" d="m14.565 10.362c0.89349 0 1.6569-0.27861 2.2194-0.80866 0.57622-0.55752 0.92219-1.4226 0.92219-2.5651v-6.5245h-1.1527v6.5387c0 1.547-0.83608 2.3418-1.9742 2.3418-1.052 0-1.6865-0.4878-2.3058-1.3945l-0.82142 0.68309c0.63424 1.0034 1.5992 1.7293 3.1125 1.7293"></path>
        <polygon style="fill:black;stroke:none" points="34.765 10.222 35.918 10.222 35.918 6.7887 39.574 0.46301 38.328 0.46301 35.355 5.7841 32.412 0.46301 31.101 0.46301 34.765 6.8017"></polygon>
        <polygon style="fill:black;stroke:none" points="61.11 10.222 62.249 10.222 62.249 0.46312 61.11 0.46312"></polygon>
        <path style="fill:black;stroke:none" d="m30.192 10.222-4.2219-9.8292h-1.0559l-4.2225 9.8292h1.0788l1.1054-2.5826h5.0895l1.0984 2.5826h1.1283zm-2.6316-3.5348h-4.2769l2.1458-5.0115 2.1311 5.0115z"></path>
        <polygon style="fill:black;stroke:none" points="75.623 10.222 75.623 0.46301 74.485 0.46301 74.485 8.5759 67.735 0.46301 66.596 0.46301 66.596 10.222 67.735 10.222 67.735 2.1837 74.485 10.222"></polygon>
        <path style="fill:black;stroke:none" d="m83.98 10.39c1.6996 0 3.1119-0.68339 4.0488-1.4923v-3.89h-3.708v0.99036h2.6127v2.4254c-0.69103 0.54423-1.758 0.97589-2.9104 0.97589-2.4499 0-3.9917-1.7281-3.9917-4.0569v-0.028068c0-2.1742 1.5998-4.0013 3.8326-4.0013 1.4266 0 2.2914 0.46061 3.0695 1.1159l0.735-0.83673c-1.0092-0.82255-2.0606-1.2968-3.7605-1.2968-3.0261 0-5.0583 2.3704-5.0583 5.047v0.028068c0 2.7885 1.9598 5.0195 5.1304 5.0195"></path>
        <path style="fill:black;stroke:none" d="m54.72 10.656-0.57897-0.21332c-1.4779-0.54452-3.0499-1.5408-4.4003-2.7755-1.3497 1.2347-2.9217 2.231-4.4003 2.7755l-0.57927 0.21332-2.9342-10.192h1.1735l2.511 8.7233c1.1674-0.52089 2.3736-1.3284 3.4384-2.2998-0.75852-0.80955-2.0111-2.3394-1.9968-3.611 0.0079394-0.71943 0.29956-1.394 0.82081-1.901 0.52522-0.50995 1.2236-0.79093 1.9671-0.79093s1.4422 0.28098 1.9668 0.79093c0.52095 0.507 0.81226 1.1815 0.82081 1.901 0.014657 1.2716-1.2379 2.8015-1.9971 3.611 1.0651 0.97175 2.2713 1.7789 3.4387 2.2998l2.5119-8.7242h1.1729l-2.9351 10.193zm-4.9789-8.9783c-0.90448 0-1.6486 0.72268-1.6584 1.6108-0.0064126 0.52591 0.50721 1.5795 1.6581 2.8163 1.1512-1.2368 1.6648-2.2904 1.6587-2.8163-0.010382-0.88814-0.75394-1.6108-1.6584-1.6108z"></path>
        <path style="fill:black;stroke:none" d="m4.9784 8.5132v-2.361c-0.4782-0.66448-1.1646-0.99657-1.9372-0.99657-1.2508 0-2.1949 0.99657-2.1949 2.1713 0 1.1862 0.94418 2.1828 2.1949 2.1828 0.77256 0 1.459-0.33209 1.9372-0.99657zm0.84616-3.9272v5.4816h-0.84616v-0.60509c-0.51514 0.4745-1.2016 0.75932-2.0478 0.75932-1.6187 0-2.9306-1.2814-2.9306-2.8949 0-1.602 1.3118-2.883 2.9306-2.883 0.84616 0 1.5326 0.28452 2.0478 0.75902v-0.61691h0.84616z"></path>
        <path style="fill:black;stroke:none" d="m98.188 8.4662v-2.361c-0.4782-0.66448-1.165-0.99657-1.9378-0.99657-1.2501 0-2.1946 0.99657-2.1946 2.171 0 1.1865 0.94448 2.1831 2.1946 2.1831 0.77287 0 1.4596-0.33209 1.9378-0.99657zm0.84616-3.9272v5.4816h-0.84616v-0.60509c-0.51514 0.4745-1.2019 0.75932-2.0478 0.75932-1.6187 0-2.9309-1.2817-2.9309-2.8952 0-1.6017 1.3121-2.883 2.9309-2.883 0.84585 0 1.5326 0.28482 2.0478 0.75932v-0.61691h0.84616z"></path>
        <path style="fill:black;stroke:none" d="m104.88 8.3003v-2.1831c-0.49072-0.70023-1.2266-1.0323-2.0236-1.0323-1.2382 0-2.121 0.9493-2.121 2.1477 0 1.1032 0.8828 2.0998 2.121 2.0998 0.79699 0 1.5329-0.33239 2.0236-1.032zm0.83333-3.7611v5.6594c0 1.6492-1.1399 2.7049-2.82 2.7049-1.4715 0-2.5873-0.84234-2.7956-2.0407h0.87028c0.1597 0.77114 0.89532 1.2935 1.9253 1.2935 1.1897 0 1.9867-0.7475 1.9867-1.9577v-0.93748c-0.53957 0.49814-1.2755 0.78295-2.1216 0.78295-1.6306 0-2.8692-1.2932-2.8692-2.8115 0-1.6256 1.2385-2.8594 2.8692-2.8594 0.84616 0 1.5821 0.28452 2.1216 0.78295v-0.61691h0.83333z"></path>
        <path style="fill:black;stroke:none" d="m107.36 6.9713h4.0341c-0.097715-1.1153-0.82142-1.8983-1.925-1.8983-1.2016 0-1.9867 0.83052-2.1091 1.8983m4.8681 0.546-0.048858-0.012114v0.012114h-4.8192c0.097716 1.0793 0.8831 1.9574 2.1458 1.9574 0.78508 0 1.3857-0.32027 1.6435-0.84234h0.90723c-0.33132 0.93748-1.3244 1.5544-2.5751 1.5544-1.729 0-2.9428-1.2814-2.9428-2.907 0-1.6374 1.2138-2.9067 2.9306-2.9067 1.6309 0 2.7589 1.2102 2.7712 2.883 0 0.11848 0 0.17757-0.012215 0.26118"></path>
        <path style="fill:black;stroke:none" d="m118.37 6.8646v3.156h-0.84585v-3.1206c0-1.1387-0.68706-1.7913-1.717-1.7913-0.7234 0-1.4593 0.36784-1.9494 1.0202v3.8917h-0.83394v-5.4816h0.83394v0.65266c0.52736-0.52207 1.2508-0.83052 2.0969-0.83052 1.4224 0 2.4154 0.96082 2.4154 2.5034"></path>
        <path style="fill:black;stroke:none" d="m123.76 8.1932h0.87089c-0.2333 1.1747-1.2999 1.9816-2.6609 1.9816-1.7167 0-2.9553-1.2696-2.9553-2.8952 0-1.6135 1.2385-2.883 2.9553-2.883 1.361 0 2.4276 0.80689 2.6609 1.9813h-0.87089c-0.18413-0.7472-0.87058-1.2338-1.79-1.2338-1.2755 0-2.1094 0.96111-2.1094 2.1355 0 1.1865 0.83394 2.1477 2.1094 2.1477 0.91944 0 1.6059-0.48661 1.79-1.2341"></path>
        <polygon style="fill:black;stroke:none" points="126.83 12.963 125.93 12.963 127.18 10.305 124.29 4.5389 125.19 4.5389 127.62 9.3678 129.9 4.5389 130.8 4.5389"></polygon>
    </g>
</svg>