<?xml version="1.0"?>
<!DOCTYPE svg PUBLIC "-//W3C//DTD SVG 1.1//EN" "http://www.w3.org/Graphics/SVG/1.1/DTD/svg11.dtd">
<svg width="107px" height="19px" viewboc="0 0 65 65" xmlns="http://www.w3.org/2000/svg">
    <g stroke="none" fill="none" fill-rule="evenodd">
        <polygon style="fill:black;stroke:none" points="0 0 0 15.6 3.7814 15.6 3.7814 9.5601 11.985 9.5601 11.985 6.4401 3.7814 6.4401 3.7814 3.119 13.091 3.119 13.091 0"></polygon>
        <path style="fill:black;stroke:none" d="m28.306 5.6784c0 1.3114-0.98223 2.2017-2.6961 2.2017h-3.5631v-4.4703h3.4954c1.7128 0 2.7638 0.75653 2.7638 2.2243v0.04427zm3.5641-0.17806v-0.04427c0-3.2022-2.2616-5.1373-6.0318-5.1373h-7.3101v15.568h3.5187v-4.9819h2.7638l3.4267 4.9819h4.1128l-3.9067-5.5594c2.0332-0.73489 3.4267-2.3139 3.4267-4.8274z"></path>
        <polygon style="fill:black;stroke:none" points="95.679 0.31855 91.429 0.31855 84.941 7.1244 84.941 0.31855 81.424 0.31855 81.424 15.887 84.941 15.887 84.941 11.127 86.792 9.2602 91.749 15.887 95.975 15.887 89.168 6.9247"></polygon>
        <polygon style="fill:black;stroke:none" points="70.686 9.9037 63.192 0.31865 59.949 0.31865 59.949 15.887 63.421 15.887 63.421 5.9892 71.166 15.887 74.158 15.887 74.158 0.31865 70.686 0.31865"></polygon>
        <path style="fill:black;stroke:none" d="m43.407 9.3696 2.1241-5.0478 2.1251 5.0478h-4.2493zm0.54872-9.162-6.8544 15.68h3.5874l1.4622-3.4924h6.7614l1.4622 3.4924h3.6783l-6.8534-15.68h-3.2438z"></path>
    </g>
</svg>